<?xml version="1.0" encoding="iso-8859-1"?>
<!-- Uploaded to: SVG Repo, www.svgrepo.com, Generator: SVG Repo Mixer Tools -->
<svg version="1.1" id="Layer_1" xmlns="http://www.w3.org/2000/svg" xmlns:xlink="http://www.w3.org/1999/xlink" 
	 viewBox="0 0 512 512" xml:space="preserve">
<polygon style="fill:#D61322;" points="235.101,256.022 512,235.123 512,160.489 235.101,139.59 "/>
<polygon style="fill:#EC2533;" points="256,139.59 0,160.489 0,235.123 256,256.022 "/>
<g>
	<path style="fill:#FFC222;" d="M483.096,72.928H256l-20.899,43.781L256,160.49h256v-58.658
		C512,85.869,499.059,72.928,483.096,72.928z"/>
	<path style="fill:#FFC222;" d="M256,439.072h227.096c15.963,0,28.904-12.941,28.904-28.904V235.123H256l-20.899,101.975
		L256,439.072z"/>
</g>
<g>
	<path style="fill:#FEDF77;" d="M0,235.123v175.045c0,15.963,12.941,28.904,28.904,28.904H256V235.123H0z"/>
	<path style="fill:#FEDF77;" d="M256,72.928H28.904C12.941,72.928,0,85.869,0,101.832v58.657h256V72.928z"/>
</g>
<rect x="42.026" y="273.356" style="fill:#FF9500;" width="128.993" height="31.347"/>
<g>
	<rect x="340.971" y="273.356" style="fill:#F17A00;" width="128.993" height="31.347"/>
	<polygon style="fill:#F17A00;" points="320.498,273.351 256,273.351 235.101,289.024 256,304.697 320.498,304.697 	"/>
</g>
<rect x="191.498" y="273.356" style="fill:#FF9500;" width="64.499" height="31.347"/>
</svg>