<!DOCTYPE svg PUBLIC "-//W3C//DTD SVG 1.1//EN" "http://www.w3.org/Graphics/SVG/1.1/DTD/svg11.dtd">
<!-- Uploaded to: SVG Repo, www.svgrepo.com, Transformed by: SVG Repo Mixer Tools -->
<svg fill="#000000" width="256px" height="256px" viewBox="0 0 24.00 24.00" id="debit-purchase" data-name="Flat Line" xmlns="http://www.w3.org/2000/svg" class="icon flat-line" transform="rotate(0)">
<g id="SVGRepo_bgCarrier" stroke-width="0"/>
<g id="SVGRepo_tracerCarrier" stroke-linecap="round" stroke-linejoin="round" stroke="#CCCCCC" stroke-width="0.4800000000000001"/>
<g id="SVGRepo_iconCarrier">
<path id="secondary" d="M3,9H21a0,0,0,0,1,0,0v9a1,1,0,0,1-1,1H4a1,1,0,0,1-1-1V9A0,0,0,0,1,3,9Z" style="fill: #FFD700; stroke-width:1.2;"/>
<path id="primary-upstroke" d="M16.55,14.5h-.1m-1.9,0h-.1" style="fill: none; stroke: #000000; stroke-linecap: round; stroke-linejoin: round; stroke-width:1.2;"/>
<path id="primary" d="M21,9H3m18,9V6a1,1,0,0,0-1-1H4A1,1,0,0,0,3,6V18a1,1,0,0,0,1,1H20A1,1,0,0,0,21,18Z" style="fill: none; stroke: #000000; stroke-linecap: round; stroke-linejoin: round; stroke-width:1.2;"/>
</g>
</svg>