<?xml version="1.0" encoding="UTF-8"?>
<svg id="Layer_2" data-name="Layer 2" xmlns="http://www.w3.org/2000/svg" viewBox="0 0 149.8 149.8">
  <defs>
    <style>
      .cls-1 {
        fill: #00a94f;
      }

      .cls-2 {
        fill: #fff;
      }

      .cls-3 {
        fill: #ee3124;
      }

      .cls-4 {
        fill: #9a8b7d;
      }
    </style>
  </defs>
  <g id="layer">
    <path class="cls-2" d="M144.5,75.3c0,38.1-30.9,69-69.1,69S6.3,113.4,6.3,75.3,37.2,6.2,75.4,6.2c38.2,0,69.1,31,69.1,69.1"/>
    <path class="cls-4" d="M110.2,111c-3.2-1.6-6.5-3.3-11.6-3.3-4.5,0-8.1,1.7-11.6,3.3-3.6,1.7-7.4,3.4-12.4,3.4-4.4,0-7.8-1.5-11.3-3.2-3.7-1.7-7.4-3.4-12.5-3.4-4.5,0-8.1,1.6-11.6,3.2-3.7,1.7-7.5,3.4-12.5,3.4h-.8c.5.6,1,1.3,1.6,1.9,5-.2,8.8-1.9,12.5-3.5,3.5-1.6,6.7-3,10.8-3,4.7,0,8.1,1.6,11.7,3.3,3.6,1.7,7.3,3.4,12.1,3.4,5.4,0,9.4-1.8,13.2-3.6,3.4-1.6,6.7-3.1,10.8-3.1,4.6,0,7.6,1.5,10.8,3.1,3.5,1.7,7,3.6,12.9,3.6.6-.6,1.1-1.3,1.6-1.9-.5,0-1,.1-1.5.1-5.5-.3-8.9-2-12.2-3.7"/>
    <path class="cls-4" d="M98.6,111.3c-4.5,0-8.1,1.7-11.6,3.3-3.6,1.7-7.4,3.4-12.4,3.4-4.4,0-7.8-1.5-11.3-3.2-3.7-1.7-7.4-3.4-12.5-3.4-4.5,0-8.1,1.6-11.6,3.2-3.1,1.4-6.3,2.8-10.3,3.2.5.6,1.1,1.1,1.6,1.7,3.6-.6,6.5-1.9,9.4-3.2,3.5-1.6,6.7-3,10.8-3,4.7,0,8.1,1.6,11.7,3.3,3.6,1.6,7.3,3.4,12.1,3.4,5.4,0,9.4-1.8,13.2-3.6,3.4-1.6,6.7-3.1,10.8-3.1,4.6,0,7.6,1.5,10.8,3.1,2.8,1.4,5.6,2.9,9.7,3.4.6-.6,1.1-1.2,1.7-1.7-4.6-.3-7.6-1.8-10.5-3.3-3.2-1.8-6.5-3.5-11.6-3.5"/>
    <path class="cls-4" d="M98.6,114.9c-4.5,0-8.1,1.7-11.6,3.3-3.6,1.7-7.4,3.4-12.4,3.4-4.4,0-7.8-1.5-11.3-3.2-3.7-1.7-7.4-3.4-12.5-3.4-4.5,0-8.1,1.6-11.6,3.2-2.3,1-4.6,2.1-7.2,2.7.6.5,1.1,1,1.7,1.5,2.3-.7,4.3-1.6,6.3-2.5,3.5-1.5,6.7-3,10.8-3,4.7,0,8.1,1.6,11.7,3.3,3.6,1.6,7.3,3.4,12.1,3.4,5.4,0,9.4-1.8,13.2-3.6,3.4-1.6,6.7-3.1,10.8-3.1,4.6,0,7.6,1.5,10.8,3.1,2,1,4,2,6.5,2.7.6-.5,1.2-1,1.7-1.5-2.9-.6-5.2-1.8-7.4-2.9-3.2-1.8-6.5-3.4-11.6-3.4"/>
    <path class="cls-4" d="M98.6,118.4c-4.5,0-8.1,1.7-11.6,3.2-3.6,1.7-7.4,3.4-12.4,3.4-4.4,0-7.8-1.6-11.3-3.2-3.7-1.7-7.4-3.5-12.5-3.5-4.5,0-8.1,1.6-11.6,3.2-1.4.6-2.8,1.2-4.2,1.8.6.5,1.1.9,1.7,1.4,1.1-.4,2.2-.9,3.3-1.4,3.5-1.6,6.7-3,10.8-3,4.7,0,8.1,1.6,11.7,3.3,3.6,1.7,7.3,3.4,12.1,3.4,5.4,0,9.4-1.8,13.2-3.6,3.4-1.6,6.7-3.1,10.8-3.1,4.6,0,7.6,1.5,10.8,3.1,1.1.6,2.2,1.1,3.4,1.6.6-.4,1.2-.9,1.7-1.4-1.5-.6-2.9-1.3-4.3-2-3.2-1.5-6.5-3.2-11.6-3.2"/>
    <path class="cls-4" d="M98.6,122c-4.5,0-8.1,1.6-11.6,3.3-3.6,1.7-7.4,3.4-12.4,3.4-4.4,0-7.8-1.6-11.3-3.2-3.7-1.7-7.4-3.4-12.5-3.4-4.5,0-8.1,1.6-11.6,3.2-.4.2-.8.4-1.2.5.6.4,1.2.9,1.8,1.3.1,0,.1-.1.2-.1,3.5-1.6,6.7-3,10.8-3,4.7,0,8.1,1.6,11.7,3.3,3.6,1.7,7.3,3.4,12.1,3.4,5.4,0,9.4-1.8,13.2-3.6,3.4-1.6,6.7-3.1,10.8-3.1,4.6,0,7.6,1.5,10.8,3.1.1.1.3.1.4.2.6-.4,1.2-.8,1.8-1.2-.5-.2-.9-.4-1.3-.7-3.3-1.7-6.6-3.4-11.7-3.4"/>
    <path class="cls-4" d="M87,128.8c-3.6,1.7-7.4,3.4-12.4,3.4-4.4,0-7.8-1.5-11.3-3.2-3.7-1.7-7.4-3.4-12.5-3.4-3.6,0-6.7,1.1-9.6,2.3.7.4,1.3.8,2,1.2,2.4-1,4.8-1.7,7.6-1.7,4.7,0,8.1,1.6,11.7,3.3,3.6,1.7,7.3,3.4,12.1,3.4,5.4,0,9.4-1.8,13.2-3.6,3.4-1.6,6.7-3.1,10.8-3.1,3.3,0,5.7.7,8,1.8.7-.4,1.3-.8,1.9-1.2-2.7-1.3-5.7-2.5-9.9-2.5-4.5.1-8.1,1.7-11.6,3.3"/>
    <path class="cls-3" d="M74.9,137.7c-34.7,0-62.9-28.2-62.9-62.9S40.2,11.9,74.9,11.9s62.9,28.2,62.9,62.9-28.1,62.9-62.9,62.9M74.9,0C33.5,0,0,33.5,0,74.9s33.5,74.9,74.9,74.9,74.9-33.5,74.9-74.9S116.3,0,74.9,0"/>
    <path class="cls-1" d="M109.9,56.3c-.5,2.3-2.8,4.8-4.1,5.8-2.9,2.4-22.3,14.2-24.5,16.9-2.2,2.7-2.6,6.7-2.6,9.8v22.8h3v-5.9c0-2,1.1-5.2,3.5-7.6,4-4.2,13.3-9.4,19.3-13.8,5.1-3.7,5.4-8.7,5.4-13.1v-15.6.7Z"/>
    <path class="cls-1" d="M78.8,77.6c2.1-2.7,22.1-14.9,25-17.2,2.9-2.3,6.2-5.9,6.2-10.4v-25.5c0,3.6-2,6.3-4.6,9.7-2.9,3.9-16.4,11.1-23,15.8-6.6,4.7-8.9,9.3-8.9,15.1v46.6h3v-24.3c-.1-3.1.1-7.1,2.3-9.8"/>
    <path class="cls-1" d="M63.6,51.3c-6.1-4.7-18.5-14.7-20-16.7-1.4-2-4.7-5.6-4.7-9.9v23.7c0,3.4,1.6,9.5,7.5,13.8,5.9,4.3,14.2,10.6,16.7,13.1s4.8,7,4.8,13.5v22.9h3v-45.5c.1-7.5-1.2-10.3-7.3-14.9"/>
  </g>
</svg>